<svg width="14" height="24" viewBox="0 0 14 24" fill="none" xmlns="http://www.w3.org/2000/svg">
<path d="M11.8785 0.118084C11.5035 0.385851 11.1803 0.734705 10.8555 1.05981C10.812 1.10316 10.7685 1.14652 10.7237 1.19119C10.6043 1.31019 10.4851 1.42934 10.3659 1.54851C10.2368 1.67753 10.1076 1.80641 9.97835 1.93531C9.69661 2.21642 9.41504 2.4977 9.1335 2.77903C8.95756 2.95484 8.78158 3.13062 8.6056 3.30639C8.11778 3.79365 7.63 4.28094 7.14238 4.7684C7.11126 4.79952 7.08013 4.83063 7.04806 4.86269C7.01686 4.89388 6.98566 4.92507 6.95351 4.95721C6.8903 5.0204 6.82709 5.08359 6.76387 5.14678C6.73252 5.17813 6.70116 5.20947 6.66886 5.24177C6.16006 5.75038 5.65095 6.25867 5.14171 6.76682C4.61814 7.28928 4.09484 7.81199 3.57181 8.33497C3.27842 8.62832 2.98492 8.92155 2.69112 9.21449C2.44118 9.46371 2.19148 9.71317 1.94209 9.96295C1.81493 10.0903 1.68766 10.2175 1.56008 10.3444C1.42165 10.4822 1.28378 10.6204 1.14596 10.7587C1.10574 10.7986 1.06553 10.8384 1.02409 10.8795C0.698751 11.2075 0.434491 11.507 0.422852 11.9854C0.432854 12.6797 1.0375 13.1227 1.49726 13.582C1.54062 13.6255 1.58398 13.669 1.62864 13.7138C1.74765 13.8332 1.8668 13.9524 1.98597 14.0716C2.11498 14.2007 2.24386 14.33 2.37276 14.4592C2.65388 14.7409 2.93516 15.0225 3.21649 15.304C3.3923 15.48 3.56808 15.656 3.74385 15.8319C4.2311 16.3198 4.7184 16.8075 5.20585 17.2952C5.23697 17.3263 5.26809 17.3574 5.30015 17.3895C5.33134 17.4207 5.36253 17.4519 5.39466 17.484C5.45786 17.5472 5.52105 17.6105 5.58424 17.6737C5.63126 17.7207 5.63126 17.7207 5.67922 17.7687C6.18783 18.2775 6.69613 18.7866 7.20428 19.2958C7.72673 19.8194 8.24945 20.3427 8.77243 20.8657C9.06578 21.1591 9.35901 21.4526 9.65195 21.7464C9.90117 21.9964 10.1506 22.2461 10.4004 22.4954C10.5278 22.6226 10.655 22.7499 10.7819 22.8775C10.9196 23.0159 11.0579 23.1538 11.1962 23.2916C11.236 23.3318 11.2759 23.372 11.3169 23.4135C11.6561 23.7498 11.9535 24.0037 12.4463 24.0147C12.7817 24.0106 12.9873 23.9556 13.2329 23.7265C13.508 23.4323 13.5701 23.1846 13.5887 22.7893C13.5105 22.3454 13.2269 22.037 12.9156 21.7312C12.874 21.6894 12.8325 21.6477 12.7897 21.6047C12.6753 21.4897 12.5602 21.3756 12.4449 21.2615C12.3204 21.138 12.1966 21.0139 12.0727 20.8898C11.8583 20.6752 11.6434 20.4611 11.4282 20.2472C11.1171 19.9381 10.8067 19.6282 10.4964 19.3183C9.99294 18.8153 9.48892 18.3128 8.98458 17.8107C8.49481 17.3231 8.0053 16.8352 7.51612 16.347C7.48594 16.3169 7.45575 16.2868 7.42466 16.2558C7.27324 16.1046 7.12182 15.9535 6.97041 15.8024C5.7154 14.5498 4.45954 13.2981 3.20312 12.0469C3.26933 11.8967 3.34831 11.7965 3.46442 11.681C3.4994 11.646 3.53439 11.6109 3.57043 11.5749C3.60903 11.5367 3.64763 11.4985 3.6874 11.4592C3.72827 11.4184 3.76915 11.3776 3.81127 11.3356C3.92481 11.2224 4.03856 11.1094 4.15239 10.9965C4.27511 10.8746 4.39755 10.7525 4.52002 10.6304C4.73234 10.4189 4.94481 10.2075 5.15737 9.99617C5.49349 9.66202 5.82915 9.3274 6.16475 8.99271C6.2796 8.87819 6.39445 8.76366 6.50931 8.64914C6.53801 8.62052 6.56672 8.5919 6.59629 8.56241C6.92307 8.23659 7.24996 7.91088 7.57689 7.58521C7.62171 7.54055 7.62171 7.54055 7.66745 7.49499C8.15146 7.01286 8.63575 6.53099 9.1201 6.0492C9.61755 5.55435 10.1145 5.05906 10.6111 4.56338C10.9174 4.25778 11.2239 3.95256 11.531 3.64782C11.7416 3.4388 11.9517 3.22935 12.1615 3.01957C12.2825 2.89864 12.4036 2.77791 12.5253 2.65769C12.6574 2.52713 12.7886 2.39566 12.9197 2.2641C12.958 2.22656 12.9963 2.18902 13.0358 2.15035C13.3021 1.88091 13.5177 1.59325 13.5903 1.21403C13.5765 0.842817 13.5278 0.568059 13.2695 0.290081C12.9018 -0.0440585 12.3216 -0.157572 11.8785 0.118084Z" fill="black"/>
</svg>
