<svg width="14" height="24" viewBox="0 0 14 24" fill="none" xmlns="http://www.w3.org/2000/svg">
<path d="M2.12146 0.118084C2.49652 0.385851 2.8197 0.734705 3.14447 1.05981C3.18797 1.10316 3.23146 1.14652 3.27628 1.19119C3.39565 1.31019 3.51489 1.42934 3.6341 1.54851C3.7632 1.67753 3.89243 1.80641 4.02165 1.93531C4.30339 2.21642 4.58496 2.4977 4.8665 2.77903C5.04244 2.95484 5.21842 3.13062 5.3944 3.30639C5.88222 3.79365 6.37 4.28094 6.85762 4.7684C6.88874 4.79952 6.91987 4.83063 6.95194 4.86269C6.98314 4.89388 7.01434 4.92507 7.04649 4.95721C7.1097 5.0204 7.17291 5.08359 7.23613 5.14678C7.26748 5.17813 7.29884 5.20947 7.33114 5.24177C7.83994 5.75038 8.34905 6.25867 8.85829 6.76682C9.38186 7.28928 9.90516 7.81199 10.4282 8.33497C10.7216 8.62832 11.0151 8.92155 11.3089 9.21449C11.5588 9.46371 11.8085 9.71317 12.0579 9.96295C12.1851 10.0903 12.3123 10.2175 12.4399 10.3444C12.5783 10.4822 12.7162 10.6204 12.854 10.7587C12.8943 10.7986 12.9345 10.8384 12.9759 10.8795C13.3012 11.2075 13.5655 11.507 13.5771 11.9854C13.5671 12.6797 12.9625 13.1227 12.5027 13.582C12.4594 13.6255 12.416 13.669 12.3714 13.7138C12.2524 13.8332 12.1332 13.9524 12.014 14.0716C11.885 14.2007 11.7561 14.33 11.6272 14.4592C11.3461 14.7409 11.0648 15.0225 10.7835 15.304C10.6077 15.48 10.4319 15.656 10.2561 15.8319C9.7689 16.3198 9.2816 16.8075 8.79415 17.2952C8.76303 17.3263 8.73191 17.3574 8.69985 17.3895C8.66866 17.4207 8.63747 17.4519 8.60534 17.484C8.54214 17.5472 8.47895 17.6105 8.41576 17.6737C8.36874 17.7207 8.36874 17.7207 8.32078 17.7687C7.81217 18.2775 7.30387 18.7866 6.79572 19.2958C6.27327 19.8194 5.75055 20.3427 5.22757 20.8657C4.93422 21.1591 4.64099 21.4526 4.34805 21.7464C4.09883 21.9964 3.84937 22.2461 3.59959 22.4954C3.47225 22.6226 3.34502 22.7499 3.2181 22.8775C3.08038 23.0159 2.94212 23.1538 2.80381 23.2916C2.76397 23.3318 2.72413 23.372 2.68308 23.4135C2.34393 23.7498 2.04653 24.0037 1.55371 24.0147C1.21829 24.0106 1.01274 23.9556 0.76709 23.7265C0.492028 23.4323 0.429881 23.1846 0.411316 22.7893C0.489496 22.3454 0.773126 22.037 1.08444 21.7312C1.12599 21.6894 1.16754 21.6477 1.21034 21.6047C1.32473 21.4897 1.43984 21.3756 1.55508 21.2615C1.67957 21.138 1.80339 21.0139 1.92729 20.8898C2.14173 20.6752 2.3566 20.4611 2.57176 20.2472C2.88285 19.9381 3.19328 19.6282 3.50357 19.3183C4.00706 18.8153 4.51108 18.3128 5.01542 17.8107C5.50519 17.3231 5.9947 16.8352 6.48388 16.347C6.51406 16.3169 6.54425 16.2868 6.57534 16.2558C6.72676 16.1046 6.87818 15.9535 7.02959 15.8024C8.2846 14.5498 9.54046 13.2981 10.7969 12.0469C10.7307 11.8967 10.6517 11.7965 10.5356 11.681C10.5006 11.646 10.4656 11.6109 10.4296 11.5749C10.391 11.5367 10.3524 11.4985 10.3126 11.4592C10.2717 11.4184 10.2308 11.3776 10.1887 11.3356C10.0752 11.2224 9.96144 11.1094 9.84761 10.9965C9.72489 10.8746 9.60245 10.7525 9.47998 10.6304C9.26766 10.4189 9.05519 10.2075 8.84263 9.99617C8.50651 9.66202 8.17085 9.3274 7.83525 8.99271C7.7204 8.87819 7.60555 8.76366 7.49069 8.64914C7.46199 8.62052 7.43328 8.5919 7.40371 8.56241C7.07693 8.23659 6.75004 7.91088 6.42311 7.58521C6.37829 7.54055 6.37829 7.54055 6.33255 7.49499C5.84854 7.01286 5.36425 6.53099 4.8799 6.0492C4.38245 5.55435 3.88546 5.05906 3.38885 4.56338C3.08264 4.25778 2.77606 3.95256 2.46899 3.64782C2.25843 3.4388 2.04831 3.22935 1.83851 3.01957C1.71754 2.89864 1.5964 2.77791 1.47472 2.65769C1.34259 2.52713 1.21139 2.39566 1.08025 2.2641C1.04197 2.22656 1.00368 2.18902 0.96424 2.15035C0.697886 1.88091 0.482264 1.59325 0.409668 1.21403C0.423459 0.842817 0.472222 0.568059 0.730469 0.290081C1.09817 -0.0440585 1.67841 -0.157572 2.12146 0.118084Z" fill="black"/>
</svg>
