<svg width="21" height="14" viewBox="0 0 21 14" fill="none" xmlns="http://www.w3.org/2000/svg">
<path d="M5.59863 0.470323C5.2623 0.554697 5.2377 0.578135 2.71113 3.45626C0.0205078 6.52188 0 6.54532 0 7.00001C0 7.4547 0.0205078 7.47813 2.71113 10.5438C5.43457 13.6422 5.32383 13.5391 5.7668 13.5297C6.38613 13.5156 6.8209 12.7938 6.62402 12.1047C6.5584 11.8703 6.43535 11.7203 4.90957 9.96251L3.26484 8.07813H11.7305C17.0994 8.07813 20.2535 8.05938 20.3438 8.03126C20.6883 7.92345 21 7.43126 21 7.00001C21 6.56876 20.6883 6.07657 20.3438 5.96876C20.2535 5.94063 17.0994 5.92188 11.7305 5.92188H3.26484L4.90957 4.03282C6.43535 2.2797 6.5584 2.1297 6.62402 1.89532C6.80859 1.24376 6.43535 0.559385 5.84473 0.47501C5.75449 0.460947 5.64375 0.460947 5.59863 0.470323Z" fill="#E6E6E6"/>
</svg>
