<svg width="40" height="40" viewBox="0 0 40 40" fill="none" xmlns="http://www.w3.org/2000/svg">
<g clip-path="url(#clip0_109_651)">
<path d="M17.2266 0.109375C16.9062 0.25 16.5859 0.640625 16.4922 1C16.4531 1.15625 16.2031 2.1875 15.9297 3.28125C15.6641 4.375 15.4219 5.32812 15.3828 5.39062C15.3516 5.46094 15.0859 5.59375 14.7891 5.70312C14.5 5.80469 13.9219 6.03906 13.5156 6.22656C13.1094 6.41406 12.7188 6.55469 12.6562 6.53906C12.5938 6.52344 11.7188 6.00781 10.7188 5.40625C9.71875 4.79688 8.78125 4.28125 8.63281 4.25C8.07812 4.14844 7.875 4.29688 6 6.15625C5.02344 7.125 4.16406 8.03906 4.09375 8.1875C3.82812 8.75 3.92969 9.00781 5.21875 11.1562L6.39844 13.125L6.14062 13.6953C6 14 5.80469 14.5 5.69531 14.7969C5.57812 15.1328 5.45312 15.3594 5.35156 15.3984C5.26562 15.4375 4.19531 15.7109 2.97656 16.0078C0.734375 16.5547 0.515625 16.6328 0.203125 17.0625C0.046875 17.2734 0.0390625 17.375 0.0390625 20C0.0390625 22.625 0.046875 22.7266 0.203125 22.9375C0.515625 23.3594 0.734375 23.4453 2.97656 23.9922C4.19531 24.2891 5.26562 24.5625 5.35156 24.6016C5.45312 24.6406 5.57812 24.8594 5.69531 25.2031C5.80469 25.5 6.03125 26.0625 6.21875 26.4609L6.54688 27.1719L5.48438 28.9375C4.60938 30.4062 4.42188 30.7734 4.39062 31.0859C4.36719 31.3281 4.39844 31.5391 4.47656 31.6875C4.67969 32.0625 8.21094 35.5312 8.46094 35.5938C8.98438 35.7188 9.28906 35.5938 11.0859 34.5156L12.8359 33.4609L13.5469 33.7891C13.9375 33.9688 14.5 34.2031 14.7969 34.3047C15.1328 34.4219 15.3594 34.5469 15.3984 34.6484C15.4375 34.7344 15.7109 35.8047 16.0078 37.0234C16.5547 39.2656 16.6406 39.4844 17.0625 39.7969C17.2734 39.9531 17.375 39.9609 20 39.9609C22.625 39.9609 22.7266 39.9531 22.9375 39.7969C23.3594 39.4844 23.4453 39.2656 23.9922 37.0234C24.2891 35.8047 24.5625 34.7344 24.6016 34.6484C24.6406 34.5469 24.8594 34.4219 25.2031 34.2969C25.5 34.1953 26.0703 33.9609 26.4766 33.7734L27.2109 33.4297L29.0469 34.5312C30.7812 35.5625 30.9062 35.625 31.2891 35.625C31.8359 35.625 31.9531 35.5312 33.9531 33.5078C35.6875 31.75 35.8516 31.5234 35.75 30.9922C35.7266 30.8516 35.2109 29.9219 34.6016 28.9141L33.5078 27.0859L33.8594 26.2969C34.0469 25.8594 34.2656 25.3203 34.3516 25.0859C34.4375 24.8359 34.5547 24.6406 34.6484 24.6016C34.7344 24.5625 35.8047 24.2891 37.0234 23.9922C39.2656 23.4453 39.4844 23.3594 39.7969 22.9375C39.9531 22.7266 39.9609 22.625 39.9609 20C39.9609 17.375 39.9531 17.2734 39.7969 17.0625C39.4844 16.6406 39.2656 16.5547 37.0234 16.0078C35.8047 15.7109 34.7344 15.4375 34.6484 15.3984C34.5469 15.3594 34.4219 15.1328 34.3047 14.7969C34.1953 14.5 33.9766 13.9609 33.8125 13.5938C33.6406 13.2344 33.5234 12.875 33.5391 12.8047C33.5625 12.7344 34.0234 11.9297 34.5625 11.0234C35.7422 9.07031 35.8125 8.91406 35.7422 8.48438C35.6875 8.19531 35.5156 7.99219 33.9141 6.38281C32.9453 5.39844 32.0469 4.52344 31.9219 4.42969C31.7578 4.3125 31.5703 4.26562 31.2891 4.25781C30.9062 4.25781 30.7891 4.32031 29.0312 5.36719C28.0078 5.98438 27.1484 6.48438 27.1094 6.48438C27.0781 6.48438 26.75 6.35156 26.3906 6.1875C26.0391 6.02344 25.5 5.80469 25.2031 5.69531C24.8672 5.57812 24.6406 5.45312 24.6016 5.35156C24.5625 5.26562 24.2891 4.19531 23.9922 2.97656C23.4453 0.734375 23.3672 0.515625 22.9375 0.203125C22.7344 0.046875 22.6094 0.0390625 20.0938 0.0234375C18.0234 0.0078125 17.4062 0.0234375 17.2266 0.109375ZM21.1172 11.8828C24.3594 12.3672 26.9766 14.6484 27.875 17.7734C29.125 22.0859 26.5859 26.6172 22.2266 27.875C17.9141 29.125 13.3828 26.5859 12.125 22.2266C10.6406 17.0938 14.5391 11.875 19.9062 11.8047C20.2656 11.7969 20.8125 11.8359 21.1172 11.8828Z" fill="#2C2C2E"/>
</g>
<defs>
<clipPath id="clip0_109_651">
<rect width="40" height="40" fill="white"/>
</clipPath>
</defs>
</svg>
