<svg width="40" height="40" viewBox="0 0 40 40" fill="none" xmlns="http://www.w3.org/2000/svg">
<g clip-path="url(#clip0_109_636)">
<path d="M19.4375 0.164062C19.2578 0.257812 19.0781 0.437499 18.9844 0.624999C18.8359 0.914062 18.8281 1.07812 18.8281 3.55469C18.8281 6.03125 18.8359 6.19531 18.9844 6.48437C19.1641 6.83594 19.6094 7.10938 20 7.10938C20.3906 7.10938 20.8359 6.83594 21.0156 6.48437C21.1641 6.19531 21.1719 6.03125 21.1719 3.55469C21.1719 1.07812 21.1641 0.914062 21.0156 0.624999C20.7266 0.0546865 20.0234 -0.148438 19.4375 0.164062Z" fill="#2C2C2E"/>
<path d="M6.27341 5.6953C5.73434 5.9453 5.47653 6.48436 5.62497 7.04686C5.70309 7.33592 5.96872 7.6328 7.48434 9.16405C9.40622 11.0937 9.68747 11.3047 10.2422 11.2109C10.6797 11.1328 11.1328 10.6797 11.2109 10.2422C11.3047 9.68748 11.0937 9.40623 9.16403 7.48436C7.70309 6.03905 7.32809 5.70311 7.07028 5.6328C6.66403 5.52342 6.66403 5.52342 6.27341 5.6953Z" fill="#2C2C2E"/>
<path d="M32.8906 5.64061C32.6875 5.6953 32.1641 6.17186 30.836 7.48436C28.9063 9.40623 28.6953 9.68748 28.7891 10.2422C28.8672 10.6797 29.3203 11.1328 29.7578 11.2109C30.3125 11.3047 30.5938 11.0937 32.5156 9.16405C34.0469 7.62498 34.2969 7.33592 34.375 7.03905C34.4531 6.74998 34.4453 6.64061 34.336 6.36717C34.1953 5.97655 34.0469 5.83592 33.6485 5.66405C33.3281 5.53123 33.2735 5.53123 32.8906 5.64061Z" fill="#2C2C2E"/>
<path d="M19.1016 9.50001C16.4688 9.76563 14.3203 10.7578 12.5312 12.5391C11.3203 13.7422 10.4688 15.1328 9.96875 16.6953C9.60156 17.8672 9.5 18.6094 9.5 20.0391C9.5 21.1875 9.53125 21.4844 9.71094 22.2422C10.1953 24.3203 10.8828 25.5625 12.7422 27.6953C13.6094 28.6875 14.0234 29.7891 14.1328 31.3516C14.1797 32.0781 14.2188 32.2813 14.3594 32.4766C14.7188 32.9844 14.5547 32.9688 20 32.9688C25.4453 32.9688 25.2812 32.9844 25.6406 32.4766C25.7812 32.2813 25.8203 32.0703 25.8672 31.375C25.9375 30.4531 26.0547 29.8906 26.3516 29.1641C26.6094 28.5234 26.875 28.1328 27.5703 27.3594C28.3203 26.5156 28.7031 26 29.1641 25.1953C30.3672 23.1094 30.7969 20.5313 30.3516 18.0781C29.5938 13.875 26.3281 10.5469 22.125 9.68751C21.3516 9.53126 19.7578 9.4297 19.1016 9.50001ZM20.5469 14.2969C20.8984 14.4766 21.1719 14.9219 21.1719 15.3125C21.1719 15.9297 20.5938 16.4844 19.9453 16.4844C19.5625 16.4844 18.7344 16.6797 18.4141 16.8438C17.5781 17.2656 17.0391 17.8828 16.6797 18.8359C16.25 19.9531 15.2891 20.2578 14.6172 19.4922C14.2969 19.125 14.2422 18.7578 14.4141 18.2109C15.0469 16.1953 16.7344 14.6797 18.8281 14.2578C19.6094 14.1016 20.1875 14.1172 20.5469 14.2969Z" fill="#2C2C2E"/>
<path d="M0.609375 18.9922C0.273438 19.1641 0 19.625 0 20C0 20.3906 0.273438 20.8359 0.625 21.0156C0.914062 21.1641 1.07812 21.1719 3.55469 21.1719C6.03125 21.1719 6.19531 21.1641 6.48438 21.0156C6.83594 20.8359 7.10938 20.3906 7.10938 20C7.10938 19.6094 6.83594 19.1641 6.48438 18.9844C6.19531 18.8359 6.03125 18.8281 3.53906 18.8281C1.0625 18.8359 0.882812 18.8438 0.609375 18.9922Z" fill="#2C2C2E"/>
<path d="M33.5 18.9922C33.1641 19.1641 32.8906 19.625 32.8906 20C32.8906 20.3906 33.1641 20.8359 33.5156 21.0156C33.8047 21.1641 33.9688 21.1719 36.4453 21.1719C38.9219 21.1719 39.0859 21.1641 39.375 21.0156C39.7266 20.8359 40 20.3906 40 20C40 19.6094 39.7266 19.1641 39.375 18.9844C39.0859 18.8359 38.9219 18.8281 36.4297 18.8281C33.9531 18.8359 33.7734 18.8438 33.5 18.9922Z" fill="#2C2C2E"/>
<path d="M15.3125 36.0078C15.3125 36.8906 15.4141 37.4141 15.7031 38.0312C16.1406 38.9688 17.1328 39.7188 18.1953 39.9219C18.7422 40.0234 21.2578 40.0234 21.8047 39.9219C23.2109 39.6562 24.3438 38.5234 24.6094 37.1172C24.6484 36.8828 24.6875 36.3828 24.6875 36.0078V35.3125H20H15.3125V36.0078Z" fill="#2C2C2E"/>
</g>
<defs>
<clipPath id="clip0_109_636">
<rect width="40" height="40" fill="white"/>
</clipPath>
</defs>
</svg>
