<svg width="20" height="21" viewBox="0 0 20 21" fill="none" xmlns="http://www.w3.org/2000/svg">
<g clip-path="url(#clip0_109_864)">
<path d="M14.6094 1.97656C14.8271 2.16223 15.0323 2.36003 15.2344 2.56249C15.2543 2.58215 15.2743 2.60181 15.2949 2.62206C16.5617 3.87901 17.2494 5.76415 17.2665 7.52791C17.254 9.10788 16.7533 10.5048 15.9686 11.8557C15.8969 11.9792 15.8258 12.1029 15.7547 12.2266C15.4955 12.6778 15.2339 13.1275 14.9714 13.5768C14.7305 13.9893 14.492 14.4032 14.2536 14.8171C14.1314 15.0292 14.009 15.2411 13.8867 15.4531C13.8379 15.5378 13.7891 15.6224 13.7402 15.707C13.6426 15.8763 13.5449 16.0456 13.4473 16.2148C13.4231 16.2567 13.3989 16.2986 13.374 16.3418C13.3252 16.4264 13.2764 16.511 13.2276 16.5955C13.105 16.808 12.9824 17.0206 12.86 17.2332C12.5981 17.6877 12.3356 18.1419 12.0704 18.5945C11.964 18.7763 11.8583 18.9586 11.7549 19.1422C11.736 19.1757 11.717 19.2091 11.6975 19.2436C11.6628 19.305 11.6284 19.3665 11.5943 19.4283C11.3541 19.8515 11.028 20.1611 10.5664 20.3335C10.0664 20.4615 9.53538 20.4133 9.08539 20.1672C8.70485 19.9343 8.49473 19.5904 8.28125 19.208C8.24275 19.1402 8.20426 19.0723 8.16573 19.0045C8.12605 18.9346 8.08653 18.8646 8.04703 18.7945C7.92485 18.5783 7.80017 18.3634 7.67578 18.1484C7.62694 18.0638 7.57811 17.9792 7.5293 17.8945C7.50513 17.8526 7.48096 17.8107 7.45605 17.7676C6.06445 15.3555 6.06445 15.3555 5.9912 15.2285C5.94241 15.1439 5.89361 15.0593 5.84481 14.9748C5.72219 14.7623 5.59961 14.5497 5.47714 14.3371C5.24099 13.9272 5.00422 13.5178 4.76563 13.1094C4.69777 12.9931 4.62994 12.8767 4.56211 12.7604C4.51444 12.6787 4.4667 12.5971 4.41891 12.5155C3.80284 11.4628 3.23637 10.4299 2.92969 9.24218C2.91811 9.19832 2.90653 9.15446 2.89459 9.10928C2.46409 7.24875 2.8891 5.28297 3.8794 3.67577C4.98077 1.9896 6.6774 0.870645 8.64187 0.456743C10.7446 0.0628175 12.9504 0.638941 14.6094 1.97656ZM8.02246 5.36034C7.53764 5.94488 7.3207 6.65106 7.38281 7.40624C7.46427 7.97819 7.704 8.45981 8.08594 8.89062C8.10668 8.91504 8.12743 8.93946 8.1488 8.96462C8.52706 9.3794 9.15906 9.67895 9.72185 9.71573C10.1028 9.73013 10.4567 9.71988 10.8203 9.59374C10.8591 9.58045 10.898 9.56716 10.938 9.55346C11.5798 9.31022 12.0752 8.83569 12.3828 8.22656C12.6642 7.55197 12.713 6.84566 12.4609 6.15624C12.1651 5.47705 11.6835 4.98403 11.0156 4.67187C9.93797 4.2629 8.81821 4.52168 8.02246 5.36034Z" fill="#B02D9C"/>
</g>
<defs>
<clipPath id="clip0_109_864">
<rect width="20" height="20" fill="white" transform="translate(0 0.375)"/>
</clipPath>
</defs>
</svg>
