<svg width="20" height="20" viewBox="0 0 20 20" fill="none" xmlns="http://www.w3.org/2000/svg">
<g clip-path="url(#clip0_109_914)">
<path d="M14.6094 1.60156C14.8271 1.78723 15.0323 1.98503 15.2344 2.18749C15.2543 2.20715 15.2743 2.22681 15.2949 2.24706C16.5617 3.50401 17.2494 5.38915 17.2665 7.15291C17.254 8.73288 16.7533 10.1298 15.9686 11.4807C15.8969 11.6042 15.8258 11.7279 15.7547 11.8516C15.4955 12.3028 15.2339 12.7525 14.9714 13.2018C14.7305 13.6143 14.492 14.0282 14.2536 14.4421C14.1314 14.6542 14.009 14.8661 13.8867 15.0781C13.8379 15.1628 13.7891 15.2474 13.7402 15.332C13.6426 15.5013 13.5449 15.6706 13.4473 15.8398C13.4231 15.8817 13.3989 15.9236 13.374 15.9668C13.3252 16.0514 13.2764 16.136 13.2276 16.2205C13.105 16.433 12.9824 16.6456 12.86 16.8582C12.5981 17.3127 12.3356 17.7669 12.0704 18.2195C11.964 18.4013 11.8583 18.5836 11.7549 18.7672C11.736 18.8007 11.717 18.8341 11.6975 18.8686C11.6628 18.93 11.6284 18.9915 11.5943 19.0533C11.3541 19.4765 11.028 19.7861 10.5664 19.9585C10.0664 20.0865 9.53538 20.0383 9.08539 19.7922C8.70485 19.5593 8.49473 19.2154 8.28125 18.833C8.24275 18.7652 8.20426 18.6973 8.16573 18.6295C8.12605 18.5596 8.08653 18.4896 8.04703 18.4195C7.92485 18.2033 7.80017 17.9884 7.67578 17.7734C7.62694 17.6888 7.57811 17.6042 7.5293 17.5195C7.50513 17.4776 7.48096 17.4357 7.45606 17.3926C6.06445 14.9805 6.06445 14.9805 5.9912 14.8535C5.94241 14.7689 5.89361 14.6843 5.84481 14.5998C5.72219 14.3873 5.59961 14.1747 5.47714 13.9621C5.24099 13.5522 5.00422 13.1428 4.76563 12.7344C4.69777 12.6181 4.62994 12.5017 4.56211 12.3854C4.51444 12.3037 4.4667 12.2221 4.41891 12.1405C3.80284 11.0878 3.23637 10.0549 2.92969 8.86718C2.91811 8.82332 2.90653 8.77946 2.89459 8.73428C2.46409 6.87375 2.8891 4.90797 3.8794 3.30078C4.98077 1.6146 6.6774 0.495645 8.64187 0.0817428C10.7446 -0.312182 12.9504 0.263941 14.6094 1.60156ZM8.02246 4.98535C7.53764 5.56988 7.3207 6.27606 7.38281 7.03124C7.46427 7.60319 7.704 8.08481 8.08594 8.51562C8.10668 8.54004 8.12743 8.56446 8.1488 8.58962C8.52706 9.0044 9.15906 9.30395 9.72185 9.34073C10.1028 9.35513 10.4567 9.34488 10.8203 9.21874C10.8591 9.20545 10.898 9.19216 10.938 9.17846C11.5798 8.93522 12.0752 8.46069 12.3828 7.85156C12.6642 7.17697 12.713 6.47066 12.4609 5.78124C12.1651 5.10205 11.6835 4.60903 11.0156 4.29687C9.93797 3.8879 8.81821 4.14668 8.02246 4.98535Z" fill="#E6E6E6"/>
</g>
<defs>
<clipPath id="clip0_109_914">
<rect width="20" height="20" fill="white"/>
</clipPath>
</defs>
</svg>
