<svg width="242" height="32" viewBox="0 0 242 32" fill="none" xmlns="http://www.w3.org/2000/svg">
<path d="M38.3613 11.0107C38.8453 11.4551 39.1754 11.9957 39.5165 12.5507C39.6719 12.8173 39.6719 12.8173 39.8674 12.999C39.9088 12.9105 39.9088 12.9105 39.951 12.8203C40.7764 11.1791 42.2728 10.0248 43.9689 9.36716C46.4205 8.56922 49.3156 8.78078 51.6245 9.91957C54.058 11.1655 55.8033 13.1318 56.6868 15.7382C57.2331 17.6269 57.2536 19.5362 57.2426 21.4847C57.2409 21.8432 57.2408 22.2016 57.2404 22.5601C57.2396 23.2357 57.2374 23.9113 57.2347 24.5869C57.231 25.5021 57.2296 26.4173 57.228 27.3325C57.2255 28.7699 57.2201 30.2071 57.2151 31.6445C55.1876 31.6445 53.1601 31.6445 51.0711 31.6445C51.0667 30.7488 51.0623 29.8531 51.0577 28.9303C51.0545 28.3613 51.0513 27.7924 51.0478 27.2234C51.0424 26.3213 51.0371 25.4191 51.033 24.5169C51.03 23.8597 51.0264 23.2025 51.0221 22.5453C51.0198 22.1978 51.0178 21.8503 51.0166 21.5027C51.0154 21.1746 51.0134 20.8465 51.0108 20.5184C51.0096 20.3427 51.0093 20.1669 51.009 19.9912C50.9946 18.4492 50.7883 16.9013 49.7359 15.6977C48.8697 14.8677 47.7259 14.7637 46.5807 14.7815C45.6519 14.8143 44.7837 15.1321 44.1136 15.7885C42.914 17.2143 42.9293 19.0631 42.9208 20.8256C42.9199 20.9435 42.919 21.0614 42.9181 21.1829C42.9157 21.5018 42.9138 21.8207 42.9119 22.1396C42.91 22.4745 42.9075 22.8094 42.9051 23.1444C42.9006 23.7766 42.8965 24.4088 42.8926 25.041C42.8873 25.8968 42.8813 26.7525 42.8754 27.6083C42.8661 28.9537 42.8576 30.2991 42.849 31.6445C40.8215 31.6445 38.794 31.6445 36.705 31.6445C36.7027 30.7119 36.7003 29.7792 36.6979 28.8184C36.6957 28.2256 36.6933 27.6329 36.6905 27.0401C36.6861 26.1004 36.6821 25.1607 36.6805 24.221C36.6793 23.5364 36.6769 22.8518 36.673 22.1672C36.6709 21.8053 36.6695 21.4434 36.6696 21.0814C36.6697 20.7396 36.668 20.3977 36.6651 20.0558C36.664 19.8731 36.6646 19.6902 36.6653 19.5074C36.6515 18.2653 36.3956 17.1151 35.7111 16.0615C35.6589 15.9779 35.6068 15.8943 35.553 15.8082C34.6842 14.9662 33.6069 14.7547 32.4383 14.7625C31.4828 14.7929 30.6324 15.0366 29.9285 15.7012C29.8551 15.769 29.8551 15.769 29.7803 15.8381C28.7282 16.9267 28.6229 18.6718 28.6245 20.0996C28.6237 20.2267 28.6228 20.3538 28.6217 20.4809C28.6193 20.8212 28.6184 21.1615 28.6178 21.5018C28.617 21.8592 28.6146 22.2166 28.6124 22.574C28.6085 23.2486 28.6059 23.9233 28.6038 24.5979C28.6009 25.5111 28.5959 26.4243 28.591 27.3374C28.5834 28.7731 28.5785 30.2088 28.5732 31.6445C26.5457 31.6445 24.5182 31.6445 22.4292 31.6445C22.4183 28.3929 22.4183 28.3929 22.416 27.0213C22.4144 26.0774 22.4125 25.1336 22.4088 24.1898C22.406 23.5021 22.4043 22.8144 22.4037 22.1268C22.4034 21.7634 22.4026 21.4 22.4006 21.0366C22.3819 17.4987 22.8399 14.376 25.4109 11.738C28.8566 8.29236 34.614 7.9257 38.3613 11.0107Z" fill="white"/>
<path d="M196.633 0.35553C198.662 0.35553 200.69 0.35553 202.78 0.35553C202.81 3.91279 202.839 7.47006 202.87 11.1351C203.228 10.7316 203.228 10.7316 203.593 10.3199C205.409 8.87882 207.959 8.66983 210.183 8.91296C213.021 9.29467 215.533 10.8221 217.332 13.0374C219.318 15.7222 220.04 19.0119 219.617 22.3114C219.247 24.7598 218.307 26.8172 216.609 28.618C216.546 28.687 216.483 28.756 216.418 28.8271C214.427 30.9317 211.492 31.8842 208.662 31.9951C205.963 32.0574 203.26 31.5321 201.062 29.8862C200.986 29.8295 200.909 29.7729 200.83 29.7146C198.371 27.8208 197.119 25.1622 196.676 22.1326C196.623 21.6995 196.621 21.2707 196.622 20.8348C196.622 20.7469 196.622 20.659 196.622 20.5684C196.622 20.2752 196.623 19.982 196.623 19.6888C196.623 19.4781 196.623 19.2674 196.623 19.0567C196.623 18.4855 196.624 17.9144 196.624 17.3432C196.625 16.8065 196.625 16.2698 196.625 15.7331C196.625 14.6705 196.626 13.6078 196.627 12.5452C196.627 11.5133 196.628 10.4813 196.628 9.44939C196.628 9.38573 196.628 9.32206 196.628 9.25647C196.629 8.93706 196.629 8.61765 196.629 8.29824C196.63 5.65067 196.631 3.0031 196.633 0.35553ZM203.864 16.2985C202.699 17.8272 202.605 19.9619 202.825 21.804C203.018 23.1321 203.471 24.2804 204.52 25.1531C205.912 26.1695 207.624 26.3356 209.293 26.1329C210.502 25.9301 211.692 25.4078 212.442 24.4026C213.553 22.736 213.777 20.6924 213.429 18.7442C213.127 17.4413 212.564 16.273 211.457 15.4832C209.135 14.1333 205.746 14.256 203.864 16.2985Z" fill="white"/>
<path d="M186.444 10.4953C186.534 10.5453 186.624 10.5953 186.717 10.6469C188.958 11.9769 190.456 14.2941 191.185 16.7429C191.216 16.8457 191.216 16.8457 191.248 16.9505C191.703 18.5864 191.749 20.2846 191.791 21.97C191.841 23.9774 191.931 25.9964 192.397 27.9582C192.419 28.0564 192.442 28.1546 192.465 28.2558C192.704 29.2649 193.025 30.2475 193.364 31.2268C193.422 31.426 193.422 31.426 193.422 31.6966C191.448 31.6966 189.475 31.6966 187.441 31.6966C187.156 31.1282 186.916 30.6454 186.744 30.0501C186.708 29.9294 186.672 29.8086 186.636 29.6878C186.602 29.5767 186.569 29.4655 186.535 29.3509C186.475 29.1702 186.415 28.9897 186.354 28.8096C186.311 28.8729 186.268 28.9362 186.224 29.0013C185.09 30.6203 183.481 31.4727 181.557 31.8467C178.621 32.3219 175.652 31.6903 173.219 29.9825C170.609 27.9924 169.135 25.2977 168.631 22.0785C168.449 20.5535 168.519 18.9388 168.863 17.4421C168.877 17.3794 168.891 17.3167 168.906 17.252C169.273 15.6872 169.98 14.1495 171.038 12.9312C171.111 12.843 171.184 12.7547 171.26 12.6637C172.14 11.6316 173.259 10.8113 174.482 10.2247C174.57 10.1797 174.659 10.1347 174.751 10.0883C178.352 8.32907 182.973 8.53908 186.444 10.4953ZM176.103 16.1657C174.843 17.5909 174.641 19.5045 174.754 21.3215C174.892 22.7215 175.362 24.0844 176.434 25.0465C177.907 26.1753 179.647 26.3549 181.445 26.1545C182.685 25.9297 183.868 25.3521 184.628 24.3304C185.687 22.6714 185.748 20.5192 185.354 18.6416C185.05 17.3595 184.4 16.1478 183.295 15.3784C181.165 14.1776 177.871 14.4644 176.103 16.1657Z" fill="white"/>
<path d="M240.502 10.0593C240.593 10.1491 240.593 10.1491 240.604 10.3747C240.604 10.475 240.603 10.5753 240.603 10.6786C240.603 10.7919 240.603 10.9052 240.603 11.0219C240.603 11.1464 240.602 11.2709 240.602 11.3955C240.602 11.5222 240.601 11.6489 240.601 11.7756C240.601 12.1097 240.6 12.4438 240.599 12.7779C240.598 13.1186 240.598 13.4593 240.597 13.8C240.596 14.4689 240.595 15.1379 240.593 15.8068C238.588 15.5511 238.588 15.5511 237.798 15.4388C235.341 15.092 232.819 14.8247 230.339 15.0715C230.24 15.0809 230.24 15.0809 230.14 15.0905C229.575 15.1564 229.143 15.3112 228.686 15.6496C228.475 15.8889 228.475 15.8889 228.487 16.2165C228.626 16.6141 228.775 16.6778 229.14 16.8844C229.365 16.9686 229.579 17.04 229.809 17.1033C229.875 17.122 229.941 17.1406 230.009 17.1598C230.959 17.4188 231.929 17.5956 232.895 17.7825C236.755 18.5326 236.755 18.5326 237.866 19.0229C237.937 19.0534 238.008 19.0839 238.081 19.1154C239.542 19.765 240.794 20.7698 241.394 22.2781C242.006 23.983 241.861 25.9241 241.138 27.5711C240.141 29.4729 238.337 30.6846 236.321 31.3429C236.005 31.4359 235.687 31.5183 235.367 31.5955C235.295 31.613 235.222 31.6305 235.148 31.6485C233.773 31.9569 232.391 32.0051 230.987 31.9996C230.902 31.9995 230.817 31.9994 230.729 31.9992C229.214 31.995 227.734 31.9052 226.232 31.7022C226.127 31.6882 226.021 31.6743 225.913 31.6599C222.548 31.2057 222.548 31.2057 222.233 30.8939C222.224 30.7176 222.222 30.5409 222.222 30.3644C222.222 30.2511 222.222 30.1378 222.222 30.0211C222.223 29.8966 222.223 29.7721 222.224 29.6475C222.224 29.5208 222.224 29.3941 222.224 29.2674C222.224 28.9333 222.225 28.5992 222.226 28.2651C222.227 27.9244 222.228 27.5837 222.228 27.243C222.229 26.5741 222.231 25.9051 222.233 25.2362C222.707 25.2849 223.176 25.3419 223.645 25.4236C226.205 25.854 228.759 26.0671 231.356 26.0725C231.468 26.073 231.468 26.073 231.583 26.0735C233.514 26.0902 233.514 26.0902 235.321 25.5056C235.411 25.476 235.501 25.4464 235.594 25.4158C235.671 25.119 235.671 25.119 235.685 24.7872C235.109 24.031 233.609 23.8847 232.73 23.7151C232.537 23.6777 232.343 23.6391 232.15 23.6003C231.602 23.4902 231.053 23.3824 230.505 23.2749C230.166 23.2084 229.827 23.1407 229.489 23.0724C229.301 23.035 229.114 22.9989 228.926 22.9629C226.79 22.5321 224.727 21.5769 223.388 19.8182C222.356 18.2315 222.237 16.3659 222.596 14.5495C222.891 13.3396 223.533 12.3712 224.414 11.4962C224.473 11.4345 224.533 11.3728 224.594 11.3092C228.326 7.69972 236.03 8.88147 240.502 10.0593Z" fill="white"/>
<path d="M144.117 10.0407C144.208 10.13 144.208 10.13 144.219 10.3543C144.219 10.454 144.219 10.5538 144.218 10.6565C144.218 10.7691 144.218 10.8818 144.218 10.9978C144.218 11.1216 144.217 11.2454 144.217 11.3692C144.217 11.4952 144.217 11.6212 144.217 11.7472C144.216 12.0794 144.215 12.4116 144.214 12.7438C144.213 13.0825 144.213 13.4213 144.212 13.76C144.211 14.4251 144.21 15.0902 144.208 15.7553C143.993 15.7267 143.779 15.698 143.564 15.6694C143.38 15.6448 143.196 15.6203 143.012 15.5958C142.612 15.5425 142.213 15.4893 141.814 15.4347C136.942 14.5179 136.942 14.5179 132.345 15.4874C132.11 15.7448 132.073 15.8638 132.066 16.2073C132.169 16.485 132.259 16.5983 132.52 16.7444C133.42 17.1339 134.407 17.3005 135.367 17.4855C135.76 17.5616 136.153 17.6399 136.547 17.7179C136.663 17.741 136.663 17.741 136.783 17.7646C141.952 18.7873 141.952 18.7873 143.478 20.1305C143.58 20.2198 143.58 20.2198 143.684 20.3108C144.178 20.7666 144.539 21.2358 144.847 21.827C144.882 21.8935 144.918 21.9601 144.955 22.0286C145.683 23.5681 145.469 25.531 144.938 27.0951C144.065 29.076 142.318 30.2746 140.331 31.0605C135.982 32.5814 130.246 32.0696 125.867 30.8453C125.867 28.9595 125.867 27.0737 125.867 25.1307C127.053 25.3093 127.053 25.3093 127.586 25.3955C130.021 25.7821 132.469 25.9581 134.935 25.9623C135.01 25.9626 135.085 25.9629 135.162 25.9632C137.235 26.0299 137.235 26.0299 139.069 25.271C139.246 25.0647 139.251 24.8566 139.28 24.595C137.835 23.5742 135.639 23.4723 133.914 23.1425C131.159 22.6147 128.615 21.9059 126.854 19.6024C125.884 18.0914 125.795 16.2194 126.14 14.5052C126.447 13.2904 127.079 12.3517 127.965 11.4694C128.022 11.4133 128.078 11.3572 128.135 11.2995C131.979 7.74805 139.528 8.84373 144.117 10.0407Z" fill="white"/>
<path d="M61.5249 9.25675C63.5649 9.25675 65.605 9.25675 67.7068 9.25675C67.7102 10.1138 67.7136 10.9708 67.7171 11.8539C67.7199 12.3992 67.7227 12.9444 67.7258 13.4897C67.7308 14.3539 67.7354 15.218 67.7383 16.0821C67.7404 16.7117 67.7435 17.3413 67.7476 17.9709C67.7498 18.3036 67.7515 18.6363 67.7521 18.969C67.7483 22.3003 67.7483 22.3003 69.399 25.1178C70.3936 26.046 71.7377 26.1859 73.0446 26.154C74.0299 26.1101 75.1372 25.8905 75.8593 25.1725C75.9797 25.0547 75.9797 25.0547 76.1615 25.0547C76.1853 25.0043 76.2091 24.9538 76.2336 24.9019C76.3537 24.6762 76.4964 24.4781 76.6445 24.2693C77.2045 23.4127 77.5337 22.3152 77.539 21.2963C77.5397 21.1908 77.5405 21.0853 77.5413 20.9767C77.5418 20.8043 77.5418 20.8043 77.5424 20.6285C77.5431 20.5056 77.5439 20.3828 77.5447 20.2599C77.5463 19.9959 77.5477 19.732 77.5488 19.468C77.5507 19.0509 77.5532 18.6338 77.5558 18.2167C77.5617 17.2566 77.5668 16.2965 77.5718 15.3364C77.5764 14.4554 77.5812 13.5744 77.5868 12.6934C77.5894 12.2784 77.5915 11.8633 77.5933 11.4483C77.5945 11.1909 77.5961 10.9334 77.5978 10.676C77.5988 10.4988 77.5994 10.3217 77.6 10.1445C77.6008 10.04 77.6015 9.93558 77.6023 9.82795C77.6028 9.73661 77.6033 9.64527 77.6037 9.55116C77.6161 9.34651 77.6161 9.34651 77.707 9.25675C77.8962 9.24783 78.0856 9.24526 78.275 9.24514C78.3343 9.24498 78.3936 9.24482 78.4546 9.24466C78.6515 9.24426 78.8483 9.24453 79.0451 9.24483C79.1813 9.24477 79.3175 9.24468 79.4537 9.24457C79.7396 9.24444 80.0254 9.24463 80.3112 9.24505C80.6784 9.24556 81.0456 9.24527 81.4128 9.24473C81.6941 9.2444 81.9755 9.24451 82.2569 9.24474C82.3923 9.2448 82.5277 9.24473 82.6632 9.24452C82.8521 9.24429 83.0411 9.24463 83.23 9.24514C83.3377 9.24521 83.4455 9.24528 83.5565 9.24535C83.798 9.25675 83.798 9.25675 83.8889 9.34651C83.8981 9.48951 83.9008 9.63291 83.9011 9.77619C83.9017 9.91578 83.9017 9.91578 83.9023 10.0582C83.9022 10.1612 83.9022 10.2642 83.9021 10.3704C83.9024 10.4783 83.9027 10.5862 83.9031 10.6973C83.9038 10.9947 83.9041 11.2921 83.9041 11.5896C83.9042 11.7762 83.9044 11.9628 83.9046 12.1494C83.9055 12.8031 83.9058 13.4567 83.9058 14.1103C83.9057 14.7149 83.9067 15.3194 83.9081 15.9239C83.9093 16.4455 83.9098 16.9671 83.9097 17.4887C83.9097 17.799 83.91 18.1092 83.9109 18.4195C83.9213 22.3996 83.4813 26.058 80.5423 29.0267C78.4485 31.064 75.6059 31.9778 72.7126 32C70.2943 31.9815 67.8164 31.4099 65.8886 29.9018C65.8046 29.8369 65.7206 29.772 65.634 29.7051C63.2856 27.8508 62.0811 25.3465 61.6158 22.4517C61.6003 22.3689 61.5848 22.2862 61.5689 22.201C61.4932 21.6702 61.5131 21.1332 61.5146 20.5984C61.5146 20.4745 61.5146 20.3506 61.5145 20.2267C61.5145 19.8918 61.515 19.5569 61.5157 19.2221C61.5162 18.8715 61.5163 18.521 61.5164 18.1705C61.5167 17.5074 61.5174 16.8443 61.5183 16.1811C61.5196 15.2846 61.52 14.3881 61.5206 13.4915C61.5214 12.0799 61.5232 10.6684 61.5249 9.25675Z" fill="white"/>
<path d="M99.9101 9.24445C100.018 9.24465 100.126 9.24484 100.237 9.24505C100.326 9.24503 100.326 9.24503 100.417 9.24501C100.614 9.24507 100.811 9.24577 101.008 9.24648C101.145 9.24664 101.281 9.24677 101.417 9.24686C101.777 9.2472 102.136 9.24809 102.496 9.24908C102.863 9.25 103.229 9.25041 103.596 9.25086C104.315 9.25182 105.035 9.25336 105.755 9.25524C105.755 9.34351 105.755 9.34351 105.756 9.43355C105.763 10.8714 105.772 12.3093 105.781 13.7471C105.786 14.4425 105.79 15.1379 105.793 15.8332C105.796 16.44 105.8 17.0467 105.804 17.6534C105.807 17.9741 105.809 18.2948 105.81 18.6154C105.771 22.0138 105.771 22.0138 107.288 24.9813C108.294 25.913 109.604 26.1858 110.944 26.1755C112.245 26.1333 113.429 25.7735 114.363 24.8357C115.481 23.465 115.668 21.704 115.676 20.0106C115.677 19.894 115.678 19.7774 115.679 19.6573C115.681 19.3399 115.683 19.0225 115.685 18.7051C115.687 18.3725 115.69 18.0399 115.692 17.7073C115.697 17.0786 115.701 16.4499 115.705 15.8211C115.71 14.9708 115.716 14.1204 115.722 13.27C115.731 11.9318 115.74 10.5935 115.748 9.25524C117.787 9.25524 119.826 9.25524 121.926 9.25524C121.937 12.2942 121.937 12.2942 121.94 13.5771C121.941 14.4595 121.943 15.342 121.947 16.2244C121.949 16.8673 121.951 17.5103 121.952 18.1532C121.952 18.4929 121.953 18.8326 121.955 19.1723C121.974 22.5198 121.484 25.6134 119.292 28.293C119.203 28.4012 119.203 28.4012 119.113 28.5116C117.356 30.5613 114.664 31.7037 111.998 31.9562C109.107 32.174 106.05 31.6002 103.745 29.7635C103.368 29.4394 103.012 29.0984 102.666 28.742C102.593 28.6719 102.521 28.6017 102.446 28.5294C99.8144 25.8693 99.5453 22.1449 99.5558 18.6351C99.5566 18.3077 99.5565 17.9803 99.5564 17.653C99.5565 17.1055 99.5573 16.558 99.5585 16.0105C99.56 15.3774 99.5605 14.7443 99.5604 14.1112C99.5603 13.4345 99.561 12.7579 99.5618 12.0813C99.562 11.8867 99.562 11.6922 99.5621 11.4976C99.5622 11.1372 99.5631 10.7767 99.564 10.4163C99.564 10.3085 99.564 10.2006 99.5639 10.0895C99.5643 9.99212 99.5647 9.89472 99.5651 9.79438C99.5652 9.70926 99.5654 9.62415 99.5656 9.53645C99.5831 9.24917 99.6163 9.25756 99.9101 9.24445Z" fill="white"/>
<path d="M158.578 0.35553C160.572 0.35553 162.567 0.35553 164.622 0.35553C164.622 10.6809 164.622 21.0062 164.622 31.6444C162.628 31.6444 160.633 31.6444 158.578 31.6444C158.578 21.3191 158.578 10.9938 158.578 0.35553Z" fill="white"/>
<path d="M88.9889 0.35553C90.9506 0.35553 92.9122 0.35553 94.9334 0.35553C94.9334 10.6809 94.9334 21.0062 94.9334 31.6444C92.9424 31.6444 90.9515 31.6444 88.9002 31.6444C88.8982 27.6715 88.8966 23.6985 88.8956 19.7255C88.8955 19.257 88.8954 18.7885 88.8953 18.32C88.8953 18.2267 88.8953 18.1334 88.8952 18.0373C88.8948 16.5249 88.8941 15.0124 88.8933 13.5C88.8925 11.9493 88.892 10.3986 88.8918 8.84788C88.8917 7.89021 88.8913 6.93254 88.8906 5.97487C88.8901 5.3191 88.89 4.66332 88.8901 4.00755C88.8902 3.62861 88.8901 3.24967 88.8896 2.87073C88.8892 2.5244 88.8891 2.17807 88.8894 1.83174C88.8895 1.70589 88.8894 1.58004 88.8891 1.45419C88.8887 1.28424 88.889 1.11428 88.8893 0.944325C88.8892 0.849586 88.8892 0.754847 88.8892 0.657237C88.9002 0.44596 88.9002 0.44596 88.9889 0.35553Z" fill="white"/>
<path d="M0.0999795 0.35553C2.06165 0.35553 4.02333 0.35553 6.04444 0.35553C6.04444 10.6809 6.04444 21.0062 6.04444 31.6444C4.05349 31.6444 2.06254 31.6444 0.0112561 31.6444C0.00930198 27.6715 0.00766309 23.6985 0.00672546 19.7255C0.00661449 19.257 0.00649965 18.7885 0.00638243 18.32C0.00635915 18.2267 0.00633588 18.1334 0.0063119 18.0373C0.00592532 16.5249 0.00522549 15.0124 0.00441089 13.5C0.00358262 11.9493 0.00308869 10.3986 0.00290831 8.84788C0.00278627 7.89021 0.00240015 6.93254 0.00168144 5.97487C0.00121421 5.3191 0.00107029 4.66332 0.00118592 4.00755C0.00124302 3.62861 0.00115251 3.24967 0.000679837 2.87073C0.000250963 2.5244 0.000224399 2.17807 0.000529596 1.83174C0.000567367 1.70589 0.000452388 1.58004 0.000176093 1.45419C-0.000175594 1.28424 6.31264e-05 1.11428 0.000338931 0.944325C0.000305241 0.849586 0.000271546 0.754847 0.000236835 0.657237C0.0112561 0.44596 0.0112561 0.44596 0.0999795 0.35553Z" fill="white"/>
<path d="M11.478 9.24445C13.4396 9.24445 15.4012 9.24445 17.4223 9.24445C17.4223 16.6364 17.4223 24.0284 17.4223 31.6444C15.4314 31.6444 13.4405 31.6444 11.3893 31.6444C11.3873 28.8038 11.3857 25.9631 11.3847 23.1224C11.3846 22.7874 11.3845 22.4524 11.3844 22.1173C11.3844 22.0506 11.3843 21.9839 11.3843 21.9152C11.3839 20.8338 11.3832 19.7524 11.3824 18.671C11.3816 17.5623 11.3811 16.4535 11.3809 15.3447C11.3808 14.66 11.3804 13.9753 11.3797 13.2905C11.3792 12.7664 11.3791 12.2422 11.3792 11.718C11.3792 11.5024 11.379 11.2867 11.3787 11.071C11.3782 10.7779 11.3783 10.4849 11.3786 10.1918C11.3783 10.1053 11.3781 10.0187 11.3778 9.92954C11.378 9.85165 11.3782 9.77376 11.3783 9.6935C11.3783 9.62576 11.3783 9.55802 11.3782 9.48823C11.3893 9.33405 11.3893 9.33405 11.478 9.24445Z" fill="white"/>
<path d="M16.2539 0.44104C17.1126 1.02897 17.8105 1.86281 18.0618 2.86011C18.2461 3.9327 18.0817 4.98792 17.4847 5.91891C16.84 6.76137 16.0411 7.27838 14.9595 7.44208C13.7981 7.5172 12.6324 7.45918 11.7024 6.70472C11.6484 6.6556 11.5944 6.60648 11.5388 6.55587C11.4819 6.50492 11.4251 6.45397 11.3665 6.40147C10.5376 5.58138 10.2995 4.54064 10.3116 3.43337C10.3859 2.45244 10.7816 1.57973 11.5308 0.901107C12.7783 -0.0541101 14.8322 -0.317868 16.2539 0.44104Z" fill="white"/>
</svg>
