<svg width="67" height="67" viewBox="0 0 67 67" fill="none" xmlns="http://www.w3.org/2000/svg">
<g clip-path="url(#clip0_109_994)">
<path d="M62.0844 27.172C62.8268 24.9361 63.0836 22.5676 62.8376 20.2246C62.5915 17.8816 61.8483 15.6181 60.6576 13.5853C58.8924 10.5126 56.197 8.07996 52.96 6.63796C49.7231 5.19596 46.1119 4.81914 42.6469 5.56183C40.6785 3.37216 38.1685 1.739 35.369 0.826378C32.5696 -0.0862427 29.5793 -0.246195 26.6985 0.362587C23.8177 0.971369 21.1478 2.32745 18.957 4.29463C16.7661 6.26182 15.1315 8.77084 14.2172 11.5697C11.9088 12.0431 9.72809 13.0037 7.82071 14.3873C5.91334 15.7709 4.32326 17.5458 3.15673 19.5931C1.37231 22.6606 0.609658 26.2162 0.979039 29.7457C1.34842 33.2751 2.83069 36.5957 5.21156 39.2273C4.46639 41.4621 4.20704 43.8302 4.45086 46.1732C4.69467 48.5163 5.43603 50.7803 6.62535 52.8137C8.39282 55.8875 11.0906 58.3207 14.3298 59.7627C17.569 61.2047 21.1824 61.581 24.6493 60.8374C26.2132 62.5986 28.1348 64.0058 30.2859 64.9652C32.437 65.9245 34.768 66.4139 37.1232 66.4007C40.6747 66.404 44.1353 65.2786 47.0055 63.1872C49.8758 61.0957 52.0072 58.1462 53.0921 54.7645C55.4001 54.2904 57.5806 53.3294 59.4878 51.9458C61.3951 50.5622 62.9854 48.7877 64.1525 46.7408C65.9158 43.6778 66.6654 40.1357 66.2939 36.6209C65.9225 33.1062 64.449 29.7987 62.0844 27.172ZM37.1232 62.0548C34.2147 62.0594 31.3973 61.0399 29.1651 59.1752L29.5577 58.9528L42.7778 51.3217C43.1068 51.1287 43.38 50.8534 43.5705 50.523C43.761 50.1925 43.8622 49.8181 43.8643 49.4367V30.7977L49.453 34.0309C49.4807 34.0449 49.5046 34.0652 49.5229 34.0902C49.5411 34.1152 49.5532 34.1442 49.5582 34.1748V49.6201C49.5511 52.9159 48.2388 56.0747 45.9083 58.4051C43.5778 60.7355 40.419 62.0478 37.1232 62.0548ZM10.395 50.641C8.93629 48.1223 8.41256 45.1698 8.9159 42.303L9.30877 42.5388L22.5419 50.1699C22.8693 50.362 23.2421 50.4633 23.6217 50.4633C24.0014 50.4633 24.3741 50.362 24.7016 50.1699L40.8669 40.8502V47.3033C40.8653 47.3367 40.8563 47.3694 40.8404 47.3989C40.8245 47.4283 40.8021 47.4538 40.775 47.4734L27.3847 55.1961C24.5271 56.8424 21.1329 57.2873 17.9475 56.4333C14.7621 55.5792 12.0458 53.496 10.395 50.641ZM6.91336 21.8447C8.38215 19.3097 10.7005 17.3763 13.458 16.3865V32.0936C13.453 32.4731 13.55 32.847 13.7387 33.1762C13.9275 33.5054 14.2012 33.7779 14.5312 33.9653L30.6179 43.2457L25.0289 46.4785C24.9986 46.4946 24.9649 46.503 24.9307 46.503C24.8964 46.503 24.8627 46.4946 24.8324 46.4785L11.4685 38.7691C8.61616 37.1158 6.53529 34.3995 5.68153 31.2152C4.82777 28.0308 5.27072 24.6379 6.91336 21.7794V21.8447ZM52.8303 32.5125L36.6913 23.1406L42.2674 19.9202C42.2976 19.9041 42.3313 19.8957 42.3656 19.8957C42.3998 19.8957 42.4335 19.9041 42.4638 19.9202L55.8278 27.6429C57.8711 28.8219 59.5369 30.5579 60.6307 32.6481C61.7244 34.7384 62.201 37.0966 62.0047 39.4475C61.8085 41.7985 60.9475 44.0451 59.5224 45.925C58.0972 47.805 56.1667 49.2408 53.9561 50.0647V34.3576C53.9445 33.9788 53.8346 33.6095 53.6372 33.286C53.4398 32.9624 53.1619 32.6961 52.8303 32.5125ZM58.3933 24.1485L58.0005 23.9128L44.7936 16.2164C44.4642 16.0231 44.0891 15.9211 43.7071 15.9211C43.3252 15.9211 42.9501 16.0231 42.6207 16.2164L26.4689 25.5357V19.083C26.4655 19.0502 26.471 19.017 26.4848 18.9871C26.4987 18.9571 26.5203 18.9315 26.5475 18.9128L39.9115 11.2031C41.9597 10.0232 44.3016 9.4508 46.6632 9.55295C49.0247 9.6551 51.3084 10.4275 53.2471 11.7799C55.1858 13.1323 56.6993 15.0088 57.6107 17.1898C58.5221 19.3708 58.7937 21.7663 58.3936 24.0959L58.3933 24.1485ZM23.4187 35.588L17.8299 32.3681C17.802 32.3513 17.7781 32.3285 17.7599 32.3014C17.7417 32.2743 17.7297 32.2435 17.7248 32.2112V16.8054C17.7279 14.442 18.4037 12.1284 19.6732 10.1349C20.9428 8.14145 22.7536 6.55061 24.894 5.54838C27.0343 4.54615 29.4158 4.17394 31.7599 4.47529C34.104 4.77663 36.3139 5.73907 38.1311 7.25007L37.7383 7.47279L24.5184 15.1033C24.1894 15.2963 23.9162 15.5716 23.7257 15.902C23.5352 16.2325 23.434 16.6069 23.4319 16.9883L23.4187 35.588ZM26.4554 29.0436L33.6543 24.8941L40.8669 29.0436V37.3421L33.6806 41.4913L26.4687 37.3421L26.4554 29.0436Z" fill="black"/>
</g>
<defs>
<clipPath id="clip0_109_994">
<rect width="66.4008" height="66.4008" fill="white" transform="translate(0.436911)"/>
</clipPath>
</defs>
</svg>
