<svg width="40" height="40" viewBox="0 0 40 40" fill="none" xmlns="http://www.w3.org/2000/svg">
<g clip-path="url(#clip0_109_676)">
<path d="M5.14723 5.61078C4.96754 5.70453 4.67848 6.01703 4.33473 6.50922C4.03785 6.92328 3.8191 7.27484 3.83473 7.29828C3.85817 7.3139 7.24098 8.0014 11.366 8.8139C15.4832 9.6264 18.9285 10.3139 19.0144 10.3295C19.2722 10.392 17.7957 9.02484 17.1238 8.58734C16.3816 8.09515 15.3113 7.5639 14.5222 7.29047C13.9285 7.08734 5.99098 5.45453 5.62379 5.45453C5.51442 5.46234 5.29567 5.52484 5.14723 5.61078Z" fill="#2C2C2E"/>
<path d="M30.2254 6.26701C28.0535 6.70451 26.0379 7.14982 25.7332 7.25139C24.2957 7.72795 22.7644 8.6342 21.7019 9.64983C21.3582 9.97795 21.1082 10.267 21.1472 10.2826C21.2254 10.3061 36.241 7.33733 36.3113 7.28264C36.3269 7.26701 36.1004 6.92326 35.8035 6.5092C35.2332 5.6967 34.8972 5.4467 34.4285 5.46232C34.2879 5.46232 32.3972 5.82951 30.2254 6.26701Z" fill="#2C2C2E"/>
<path d="M0.631606 9.33734C0.490981 9.40765 0.295668 9.57172 0.201918 9.70453L0.0300435 9.94672L0.00660601 20.9077C-0.00901899 31.767 -0.00901899 31.8686 0.147231 32.1733C0.233168 32.3452 0.412856 32.5405 0.561293 32.6186C0.694106 32.6889 4.02223 33.8061 7.94411 35.103L15.0691 37.4623V24.7045V11.9389L14.8972 11.8998C14.7957 11.8764 12.6629 11.4545 10.1472 10.9545C7.63161 10.4623 4.60817 9.86078 3.42848 9.6264C2.24879 9.39984 1.19411 9.20453 1.08473 9.20453C0.975356 9.20453 0.772231 9.26703 0.631606 9.33734Z" fill="#2C2C2E"/>
<path d="M31.7332 10.5874L24.9129 11.9624V24.728C24.9129 31.7514 24.9363 37.478 24.9754 37.4624C25.0066 37.4467 28.1941 36.3842 32.0613 35.103C35.9285 33.8296 39.2254 32.7124 39.3816 32.6342C39.5691 32.5405 39.7332 32.3686 39.8347 32.1733C39.991 31.8686 39.991 31.7358 39.991 20.9936C39.991 11.1264 39.9832 10.103 39.866 9.86081C39.6863 9.48581 39.3425 9.25924 38.905 9.23581C38.6707 9.22018 36.1785 9.68893 31.7332 10.5874ZM35.5379 13.1108C35.8894 13.2905 36.1629 13.7358 36.1629 14.1264C36.1629 14.5327 35.8816 14.9702 35.5144 15.1421C35.155 15.3139 30.2488 16.5483 29.9441 16.5483C29.3972 16.5483 28.8191 15.9467 28.8191 15.3764C28.8191 15.0639 29.0691 14.5717 29.3191 14.4155C29.5379 14.2671 34.5847 12.9702 34.9754 12.9624C35.116 12.9546 35.3738 13.0249 35.5379 13.1108ZM35.5379 18.1108C35.8894 18.2905 36.1629 18.7358 36.1629 19.1264C36.1629 19.5327 35.8816 19.9702 35.5144 20.1421C35.155 20.3139 30.2488 21.5483 29.9441 21.5483C29.3972 21.5483 28.8191 20.9467 28.8191 20.3764C28.8191 20.0639 29.0691 19.5717 29.3191 19.4155C29.5379 19.2671 34.5847 17.9702 34.9754 17.9624C35.116 17.9546 35.3738 18.0249 35.5379 18.1108Z" fill="#2C2C2E"/>
<path d="M17.4129 26.0248V39.6577L17.78 39.8139C18.6004 40.1655 19.0691 40.2592 19.991 40.2592C20.9129 40.2592 21.3816 40.1655 22.2019 39.8139L22.5691 39.6577V26.0405V12.4311L21.3191 12.6811L20.0691 12.9311L18.9519 12.7123C18.3425 12.5873 17.7488 12.4623 17.6316 12.4389L17.4129 12.392V26.0248Z" fill="#2C2C2E"/>
</g>
<defs>
<clipPath id="clip0_109_676">
<rect width="40" height="40" fill="white"/>
</clipPath>
</defs>
</svg>
