<svg width="40" height="40" viewBox="0 0 40 40" fill="none" xmlns="http://www.w3.org/2000/svg">
<path d="M7.84773 2.51132C7.40088 2.73818 6.17033 4.16809 5.31788 5.46052C3.15238 8.71908 2.12119 12.7545 2.46492 16.6317C2.8224 20.6053 4.38293 24.1457 7.10528 27.1224C7.38026 27.4317 7.72399 27.7342 7.86836 27.803C8.38395 28.0436 9.01641 27.7686 9.2364 27.198C9.41514 26.7168 9.31202 26.4624 8.60394 25.6993C6.62405 23.5545 5.34538 21.0384 4.76791 18.1785C3.96358 14.1775 4.78854 9.99775 7.03653 6.59483C7.46275 5.95549 7.9921 5.28178 8.8308 4.33996C9.35327 3.74874 9.42201 3.49438 9.18828 3.03379C9.09891 2.86192 8.94767 2.65568 8.85142 2.58694C8.59706 2.40132 8.12272 2.36695 7.84773 2.51132Z" fill="#2C2C2E"/>
<path d="M31.297 2.49754C31.0426 2.60753 30.8226 2.87564 30.7195 3.19187C30.5889 3.5906 30.7264 3.87933 31.3795 4.60116C32.7475 6.09982 33.6893 7.57786 34.4043 9.35151C36.4186 14.3768 35.683 20.0828 32.4519 24.4206C32.1907 24.7712 31.7644 25.2868 31.5032 25.5687C30.8089 26.3249 30.7814 26.3593 30.7195 26.6342C30.6026 27.1636 30.9876 27.7754 31.5032 27.8717C31.9432 27.9542 32.3007 27.7617 32.885 27.1292C34.3218 25.5549 35.4217 23.85 36.1779 22.042C38.8797 15.6074 37.6216 8.34782 32.9263 3.22624C32.1975 2.42879 31.8332 2.2638 31.297 2.49754Z" fill="#2C2C2E"/>
<path d="M10.852 5.72177C10.4876 5.96238 9.58704 7.02106 9.0302 7.85977C7.77902 9.74341 7.05031 11.8677 6.85782 14.2325C6.56909 17.7798 7.93026 21.5952 10.4326 24.2144C10.8245 24.6269 11.0376 24.7438 11.4019 24.7438C12.1031 24.7438 12.5775 24.1113 12.3713 23.4514C12.33 23.307 12.055 22.9358 11.7388 22.5783C9.3808 19.9453 8.40461 16.3705 9.10582 12.9263C9.4908 11.0427 10.4051 9.23468 11.7663 7.68103C12.3713 6.98669 12.4812 6.7667 12.4056 6.35423C12.275 5.68052 11.4226 5.32991 10.852 5.72177Z" fill="#2C2C2E"/>
<path d="M28.0591 5.70115C27.681 5.92801 27.5023 6.32673 27.5848 6.76671C27.6191 6.9317 27.8116 7.21356 28.2172 7.67416C29.5853 9.23469 30.4996 11.0427 30.8846 12.9263C31.5858 16.3636 30.6027 19.9453 28.2516 22.5783C27.6604 23.2382 27.5091 23.5476 27.5848 23.9394C27.7016 24.5788 28.4785 24.95 29.0559 24.6475C29.6884 24.3107 31.0839 22.4408 31.8264 20.9284C33.6069 17.2986 33.6138 13.112 31.847 9.41343C31.2008 8.05913 29.819 6.17549 29.1384 5.72177C28.8497 5.52241 28.3685 5.50866 28.0591 5.70115Z" fill="#2C2C2E"/>
<path d="M14.1173 8.75343C13.8492 8.8703 13.1686 9.60588 12.7493 10.2383C11.7387 11.737 11.2644 13.3182 11.2644 15.1537C11.2644 16.6661 11.5462 17.8485 12.2268 19.1684C12.818 20.3234 13.7461 21.4439 14.2205 21.5883C14.901 21.7945 15.5266 21.3271 15.5266 20.619C15.5266 20.2684 15.4648 20.1446 15.011 19.6222C14.3167 18.8178 13.863 17.9998 13.5536 16.9961C13.3818 16.4324 13.368 16.3017 13.368 15.1537C13.368 14.0056 13.3818 13.875 13.5536 13.3113C13.863 12.3076 14.3167 11.4895 15.011 10.6852C15.4648 10.1558 15.5266 10.039 15.5266 9.66775C15.5266 8.94592 14.7773 8.46469 14.1173 8.75343Z" fill="#2C2C2E"/>
<path d="M25.0136 8.78095C24.6767 8.94594 24.4636 9.29654 24.4636 9.66777C24.4636 10.039 24.5255 10.1559 24.9792 10.6852C25.6736 11.4895 26.1273 12.3076 26.4366 13.3113C26.6085 13.875 26.6222 14.0056 26.6222 15.1537C26.6222 16.3086 26.6085 16.4324 26.4366 17.003C26.1754 17.8417 25.7285 18.6872 25.1717 19.3747C24.5117 20.1859 24.4636 20.2753 24.4636 20.6053C24.4636 21.1208 24.7867 21.5333 25.268 21.6227C25.6736 21.6983 25.9967 21.5539 26.4229 21.0933C27.5366 19.8834 28.3409 18.2679 28.6159 16.6661C28.7534 15.8687 28.7534 14.4181 28.6228 13.6344C28.3478 12.067 27.5572 10.4515 26.4985 9.30342C25.9142 8.66408 25.5223 8.51971 25.0136 8.78095Z" fill="#2C2C2E"/>
<path d="M19.3696 10.857C16.6679 11.2833 15.073 13.9094 15.9048 16.5561C16.2898 17.7797 17.2522 18.7628 18.5034 19.2097L18.9296 19.3678L18.9502 19.7871L18.9709 20.2065H19.9952H21.0195L21.0401 19.7871L21.0607 19.3678L21.487 19.2097C23.1025 18.6322 24.1612 17.216 24.2918 15.4836C24.4293 13.7169 23.405 11.9088 21.8719 11.2283C21.1226 10.8914 20.1052 10.7402 19.3696 10.857Z" fill="#2C2C2E"/>
<path d="M17.6233 22.317C17.4033 22.3789 17.1146 22.6058 17.0046 22.8189C16.9496 22.922 16.1934 25.775 15.3203 29.1504C14.4472 32.5327 13.7185 35.3513 13.6979 35.4131C13.6635 35.5231 13.5398 35.5369 12.323 35.5369C10.8793 35.5369 10.68 35.5713 10.3775 35.9081C10.1231 36.1762 10.0956 36.7881 10.3156 37.118C10.6662 37.6405 9.89625 37.5993 19.995 37.5993C28.4645 37.5993 29.0489 37.5924 29.2757 37.4755C30.0113 37.1112 30.0113 36.025 29.2757 35.6606C29.0695 35.5575 28.8358 35.5369 27.6808 35.5369C26.4572 35.5369 26.3265 35.5231 26.2922 35.4131C26.2715 35.3513 25.5428 32.5327 24.6698 29.1573C23.7967 25.7818 23.0405 22.9289 22.9855 22.8189C22.9305 22.7089 22.7861 22.5508 22.6624 22.4614C22.4355 22.3033 22.4286 22.3033 20.0982 22.2895C18.8126 22.2895 17.6989 22.2964 17.6233 22.317Z" fill="#2C2C2E"/>
</svg>
