<svg width="24" height="24" viewBox="0 0 24 24" fill="none" xmlns="http://www.w3.org/2000/svg">
<g clip-path="url(#clip0_109_921)">
<mask id="mask0_109_921" style="mask-type:luminance" maskUnits="userSpaceOnUse" x="0" y="0" width="24" height="24">
<path d="M24 0H0V24H24V0Z" fill="white"/>
</mask>
<g mask="url(#mask0_109_921)">
<path d="M21.1875 0H2.8125C1.2592 0 0 1.2592 0 2.8125V21.1875C0 22.7408 1.2592 24 2.8125 24H21.1875C22.7408 24 24 22.7408 24 21.1875V2.8125C24 1.2592 22.7408 0 21.1875 0Z" fill="white"/>
<path d="M16.683 4.6875H19.164L13.7437 10.8825L20.1202 19.3125H15.1275L11.217 14.1998L6.7425 19.3125H4.26002L10.0575 12.6863L3.94052 4.6875H9.06L12.5947 9.36075L16.683 4.6875ZM15.8122 17.8275H17.187L8.313 6.0945H6.83775L15.8122 17.8275Z" fill="#2C2C2E"/>
</g>
</g>
<defs>
<clipPath id="clip0_109_921">
<rect width="24" height="24" fill="white"/>
</clipPath>
</defs>
</svg>
